HIERARCHY
ROOT Root
{
  OFFSET 0.0 0.0 0.0
  CHANNELS 6 Xposition Yposition Zposition Zrotation Yrotation Xrotation
  JOINT Hips
  {
    OFFSET 0.0 100.0 0.0
    CHANNELS 6 Xposition Yposition Zposition Zrotation Yrotation Xrotation
    JOINT Spine1
    {
      OFFSET 5.003913 -0.037094 -0.013727
      CHANNELS 3 Zrotation Yrotation Xrotation
      JOINT Spine2
      {
        OFFSET 7.125363 -1e-06 0.0
        CHANNELS 3 Zrotation Yrotation Xrotation
        JOINT Chest
        {
          OFFSET 7.594027 1e-06 0.0
          CHANNELS 3 Zrotation Yrotation Xrotation
          JOINT Neck1
          {
            OFFSET 26.313086 -0.460272 -0.181672
            CHANNELS 3 Zrotation Yrotation Xrotation
            JOINT Neck2
            {
              OFFSET 8.045911 0.0 0.0
              CHANNELS 3 Zrotation Yrotation Xrotation
              JOINT Head
              {
                OFFSET 6.432774 0.0 0.0
                CHANNELS 3 Zrotation Yrotation Xrotation
                JOINT HeadEnd
                {
                  OFFSET 16.169773 0.06451 0.00362
                  CHANNELS 3 Zrotation Yrotation Xrotation
                }
                JOINT Jaw
                {
                  OFFSET 0.108741 3.12938 0.002639
                  CHANNELS 3 Zrotation Yrotation Xrotation
                }
                JOINT LeftEye
                {
                  OFFSET 4.45173 8.166359 3.206392
                  CHANNELS 3 Zrotation Yrotation Xrotation
                }
                JOINT RightEye
                {
                  OFFSET 4.436895 8.135758 -3.222429
                  CHANNELS 3 Zrotation Yrotation Xrotation
                }
              }
            }
          }
          JOINT LeftShoulder
          {
            OFFSET 23.218927 5.195579 1.621656
            CHANNELS 3 Zrotation Yrotation Xrotation
            JOINT LeftArm
            {
              OFFSET 15.902118 2e-06 -2e-06
              CHANNELS 3 Zrotation Yrotation Xrotation
              JOINT LeftForeArm
              {
                OFFSET 28.739307 0.0 -1e-06
                CHANNELS 3 Zrotation Yrotation Xrotation
                JOINT LeftHand
                {
                  OFFSET 27.093981 -4e-06 0.0
                  CHANNELS 3 Zrotation Yrotation Xrotation
                  JOINT LeftHandThumb1
                  {
                    OFFSET 2.276781 3.380274 0.83384
                    CHANNELS 3 Zrotation Yrotation Xrotation
                    JOINT LeftHandThumb2
                    {
                      OFFSET 4.705309 -1e-06 -1e-06
                      CHANNELS 3 Zrotation Yrotation Xrotation
                      JOINT LeftHandThumb3
                      {
                        OFFSET 2.798515 0.0 3e-06
                        CHANNELS 3 Zrotation Yrotation Xrotation
                        JOINT LeftHandThumbEnd
                        {
                          OFFSET 3.180793 4e-06 -4e-06
                          CHANNELS 3 Zrotation Yrotation Xrotation
                        }
                      }
                    }
                  }
                  JOINT LeftHandIndex1
                  {
                    OFFSET 3.247786 2.352677 0.137192
                    CHANNELS 3 Zrotation Yrotation Xrotation
                    JOINT LeftHandIndex2
                    {
                      OFFSET 6.367095 1e-06 0.0
                      CHANNELS 3 Zrotation Yrotation Xrotation
                      JOINT LeftHandIndex3
                      {
                        OFFSET 3.662364 0.0 0.0
                        CHANNELS 3 Zrotation Yrotation Xrotation
                        JOINT LeftHandIndex4
                        {
                          OFFSET 2.329242 4e-06 -4e-06
                          CHANNELS 3 Zrotation Yrotation Xrotation
                          JOINT LeftHandIndexEnd
                          {
                            OFFSET 2.767823 1e-06 0.0
                            CHANNELS 3 Zrotation Yrotation Xrotation
                          }
                        }
                      }
                    }
                  }
                  JOINT LeftHandMiddle1
                  {
                    OFFSET 3.163612 0.945023 -0.406112
                    CHANNELS 3 Zrotation Yrotation Xrotation
                    JOINT LeftHandMiddle2
                    {
                      OFFSET 6.276789 3e-06 0.0
                      CHANNELS 3 Zrotation Yrotation Xrotation
                      JOINT LeftHandMiddle3
                      {
                        OFFSET 4.35652 -1e-06 4e-06
                        CHANNELS 3 Zrotation Yrotation Xrotation
                        JOINT LeftHandMiddle4
                        {
                          OFFSET 2.996877 0.0 8e-06
                          CHANNELS 3 Zrotation Yrotation Xrotation
                          JOINT LeftHandMiddleEnd
                          {
                            OFFSET 2.323256 3e-06 -4e-06
                            CHANNELS 3 Zrotation Yrotation Xrotation
                          }
                        }
                      }
                    }
                  }
                  JOINT LeftHandRing1
                  {
                    OFFSET 2.882606 -0.309162 0.107445
                    CHANNELS 3 Zrotation Yrotation Xrotation
                    JOINT LeftHandRing2
                    {
                      OFFSET 6.033198 0.0 4e-06
                      CHANNELS 3 Zrotation Yrotation Xrotation
                      JOINT LeftHandRing3
                      {
                        OFFSET 4.350578 3e-06 0.0
                        CHANNELS 3 Zrotation Yrotation Xrotation
                        JOINT LeftHandRing4
                        {
                          OFFSET 2.651321 2e-06 -7e-06
                          CHANNELS 3 Zrotation Yrotation Xrotation
                          JOINT LeftHandRingEnd
                          {
                            OFFSET 1.937663 1e-06 -4e-06
                            CHANNELS 3 Zrotation Yrotation Xrotation
                          }
                        }
                      }
                    }
                  }
                  JOINT LeftHandPinky1
                  {
                    OFFSET 2.865315 -1.525436 0.575687
                    CHANNELS 3 Zrotation Yrotation Xrotation
                    JOINT LeftHandPinky2
                    {
                      OFFSET 5.54936 1e-06 -8e-06
                      CHANNELS 3 Zrotation Yrotation Xrotation
                      JOINT LeftHandPinky3
                      {
                        OFFSET 3.070974 0.0 -4e-06
                        CHANNELS 3 Zrotation Yrotation Xrotation
                        JOINT LeftHandPinky4
                        {
                          OFFSET 1.549672 1e-06 0.0
                          CHANNELS 3 Zrotation Yrotation Xrotation
                          JOINT LeftHandPinkyEnd
                          {
                            OFFSET 1.952123 0.0 0.0
                            CHANNELS 3 Zrotation Yrotation Xrotation
                          }
                        }
                      }
                    }
                  }
                }
              }
            }
          }
          JOINT RightShoulder
          {
            OFFSET 23.161716 5.296122 -1.380114
            CHANNELS 3 Zrotation Yrotation Xrotation
            JOINT RightArm
            {
              OFFSET -16.027195 -2e-06 1.1e-05
              CHANNELS 3 Zrotation Yrotation Xrotation
              JOINT RightForeArm
              {
                OFFSET -28.736639 4e-06 2e-06
                CHANNELS 3 Zrotation Yrotation Xrotation
                JOINT RightHand
                {
                  OFFSET -27.133619 6e-06 0.0
                  CHANNELS 3 Zrotation Yrotation Xrotation
                  JOINT RightHandThumb1
                  {
                    OFFSET -2.274328 -3.351035 -0.83067
                    CHANNELS 3 Zrotation Yrotation Xrotation
                    JOINT RightHandThumb2
                    {
                      OFFSET -4.703594 -3e-06 2e-06
                      CHANNELS 3 Zrotation Yrotation Xrotation
                      JOINT RightHandThumb3
                      {
                        OFFSET -2.794935 -4e-06 -3e-06
                        CHANNELS 3 Zrotation Yrotation Xrotation
                        JOINT RightHandThumbEnd
                        {
                          OFFSET -3.183852 4e-06 1e-06
                          CHANNELS 3 Zrotation Yrotation Xrotation
                        }
                      }
                    }
                  }
                  JOINT RightHandIndex1
                  {
                    OFFSET -3.253496 -2.33755 -0.127667
                    CHANNELS 3 Zrotation Yrotation Xrotation
                    JOINT RightHandIndex2
                    {
                      OFFSET -6.344434 0.0 0.0
                      CHANNELS 3 Zrotation Yrotation Xrotation
                      JOINT RightHandIndex3
                      {
                        OFFSET -3.654871 0.0 -8e-06
                        CHANNELS 3 Zrotation Yrotation Xrotation
                        JOINT RightHandIndex4
                        {
                          OFFSET -2.327586 -1e-06 0.0
                          CHANNELS 3 Zrotation Yrotation Xrotation
                          JOINT RightHandIndexEnd
                          {
                            OFFSET -2.770001 3e-06 8e-06
                            CHANNELS 3 Zrotation Yrotation Xrotation
                          }
                        }
                      }
                    }
                  }
                  JOINT RightHandMiddle1
                  {
                    OFFSET -3.168223 -0.944764 0.411762
                    CHANNELS 3 Zrotation Yrotation Xrotation
                    JOINT RightHandMiddle2
                    {
                      OFFSET -6.266691 -1e-06 -4e-06
                      CHANNELS 3 Zrotation Yrotation Xrotation
                      JOINT RightHandMiddle3
                      {
                        OFFSET -4.348901 0.0 0.0
                        CHANNELS 3 Zrotation Yrotation Xrotation
                        JOINT RightHandMiddle4
                        {
                          OFFSET -3.00024 2e-06 -4e-06
                          CHANNELS 3 Zrotation Yrotation Xrotation
                          JOINT RightHandMiddleEnd
                          {
                            OFFSET -2.321477 -4e-06 -4e-06
                            CHANNELS 3 Zrotation Yrotation Xrotation
                          }
                        }
                      }
                    }
                  }
                  JOINT RightHandRing1
                  {
                    OFFSET -2.885654 0.293261 -0.119232
                    CHANNELS 3 Zrotation Yrotation Xrotation
                    JOINT RightHandRing2
                    {
                      OFFSET -6.032835 -1e-06 -4e-06
                      CHANNELS 3 Zrotation Yrotation Xrotation
                      JOINT RightHandRing3
                      {
                        OFFSET -4.33881 0.0 -4e-06
                        CHANNELS 3 Zrotation Yrotation Xrotation
                        JOINT RightHandRing4
                        {
                          OFFSET -2.654903 -4e-06 -4e-06
                          CHANNELS 3 Zrotation Yrotation Xrotation
                          JOINT RightHandRingEnd
                          {
                            OFFSET -1.935122 0.0 4e-06
                            CHANNELS 3 Zrotation Yrotation Xrotation
                          }
                        }
                      }
                    }
                  }
                  JOINT RightHandPinky1
                  {
                    OFFSET -2.866241 1.503904 -0.60527
                    CHANNELS 3 Zrotation Yrotation Xrotation
                    JOINT RightHandPinky2
                    {
                      OFFSET -5.553177 -2e-06 0.0
                      CHANNELS 3 Zrotation Yrotation Xrotation
                      JOINT RightHandPinky3
                      {
                        OFFSET -3.062664 -1e-06 -4e-06
                        CHANNELS 3 Zrotation Yrotation Xrotation
                        JOINT RightHandPinky4
                        {
                          OFFSET -1.546529 2e-06 4e-06
                          CHANNELS 3 Zrotation Yrotation Xrotation
                          JOINT RightHandPinkyEnd
                          {
                            OFFSET -1.952341 0.0 -4e-06
                            CHANNELS 3 Zrotation Yrotation Xrotation
                          }
                        }
                      }
                    }
                  }
                }
              }
            }
          }
        }
      }
    }
    JOINT LeftLeg
    {
      OFFSET -8.443107 2.567604 10.043214
      CHANNELS 3 Zrotation Yrotation Xrotation
      JOINT LeftShin
      {
        OFFSET 43.229198 1e-06 -1e-06
        CHANNELS 3 Zrotation Yrotation Xrotation
        JOINT LeftFoot
        {
          OFFSET 42.298611 1e-06 1e-06
          CHANNELS 3 Zrotation Yrotation Xrotation
          JOINT LeftToeBase
          {
            OFFSET 14.165858 1e-06 0.0
            CHANNELS 3 Zrotation Yrotation Xrotation
            JOINT LeftToeEnd
            {
              OFFSET 6.7141 -0.234461 0.0
              CHANNELS 3 Zrotation Yrotation Xrotation
            }
          }
        }
      }
    }
    JOINT RightLeg
    {
      OFFSET -8.303923 2.592729 -10.047278
      CHANNELS 3 Zrotation Yrotation Xrotation
      JOINT RightShin
      {
        OFFSET -43.369682 0.0 1e-06
        CHANNELS 3 Zrotation Yrotation Xrotation
        JOINT RightFoot
        {
          OFFSET -42.260784 4e-06 2e-06
          CHANNELS 3 Zrotation Yrotation Xrotation
          JOINT RightToeBase
          {
            OFFSET -14.222245 -2e-06 -1e-06
            CHANNELS 3 Zrotation Yrotation Xrotation
            JOINT RightToeEnd
            {
              OFFSET -6.660062 0.232574 -2e-06
              CHANNELS 3 Zrotation Yrotation Xrotation
            }
          }
        }
      }
    }
  }
}
MOTION
Frames: 4
Frame Time: 0.03333333333333333
0.0 0.0 0.0 0.0 -0.0 0.0 -0.023681 84.438072 4.986434 91.588699 11.235695 89.418091 0.727265 1.396766 -0.040292 -9.960142 -0.46311 -0.246776 23.628239 2.535856 -1.242195 15.783052 9.764776 1.34494 -2.363951 -0.465435 1.972256 -31.716608 1.186088 -1.218923 7e-06 0.0 0.0 -0.032263 -0.024677 0.220295 0.132599 -0.010811 0.26951 0.136509 -0.031502 0.168077 -82.717201 -80.2006 98.272774 59.540878 -63.045181 -22.598412 29.597464 0.41841 -0.154988 -0.300445 -1.902653 27.382381 17.636627 -26.322729 52.411194 -19.46666 -14.395597 29.410385 -1e-06 -8.774822 -1e-06 15.747 -18.005659 6.29346 -0.609777 -1.795653 -3.88933 -4.807089 -11.046809 -2.93785 4e-06 -20.976013 -0.0 -5.019969 -25.033556 -4.031882 6e-06 2e-06 1e-06 -10.634535 -5.68697 -3.565587 10.573275 -17.922951 -3.113901 2e-06 -13.821208 0.0 -0.501777 -31.181505 -4.02702 -11.091301 -59.47448 7.08508 -13.982714 -7.150198 -2.87504 13.772729 -8.401491 -3.218242 0.347735 -34.211552 0.771651 -0.963028 -17.733364 2.621021 -0.0 1e-06 1e-06 -17.346416 -20.095217 -4.201784 21.757557 -1.638375 3.866426 1e-06 -6.338823 1e-06 -1.697589 -22.591742 -6.194005 -1e-06 -5e-06 -2e-06 35.10487 -70.812286 163.616211 51.835735 -47.87598 -11.546401 38.241806 0.347946 0.240305 -9.596342 -5.75677 24.228559 22.182116 -20.375891 49.933311 -16.701811 -16.74353 28.47653 -3e-06 -12.6906 -2e-06 16.427521 -18.108404 2.703777 -0.10592 -1.513857 -4.27588 -5.039041 -5.612873 -2.953552 4e-06 -11.02052 -1e-06 -6.111296 -15.89533 -3.840473 0.0 -0.0 -0.0 -10.28337 -5.680288 -4.341837 11.028291 -11.302404 -2.37263 -1.38427 -14.238577 -6.320123 -0.625436 -26.924187 -3.827602 -4.410842 -49.952885 -3.611025 -13.708523 -7.363472 -3.720939 18.141148 -14.052738 -3.242671 6e-06 -18.787266 -1e-06 -0.429711 -8.456041 2.555504 1e-06 -2e-06 -0.0 -15.923536 -20.094482 -5.473584 30.41921 -7.190827 1.735927 -0.0 -8.162922 -2e-06 -1.861903 -22.861467 -6.167942 -2e-06 -4e-06 -1e-06 177.118195 -12.087671 -6.999008 70.041992 -0.529792 0.446979 -100.587669 15.469684 -9.310349 -22.417255 1.918863 1.890413 -0.999998 0.0 -0.0 -12.732581 -5.75028 4.633257 74.859535 -0.647801 0.526693 -104.028862 15.122794 -4.808526 -16.624712 0.785834 1.591801 -1.000002 0.0 0.0 
0.0 0.0 0.0 0.0 -0.0 0.0 0.130997 83.798042 5.262919 91.546906 11.148138 89.766495 0.857342 1.466908 -0.036543 -9.900033 -0.459744 -0.272827 23.679979 2.542429 -1.26326 15.182379 9.910488 1.346871 -2.361198 -0.49768 1.598146 -31.746088 1.307453 -1.688646 5e-06 -0.0 -0.0 -0.04776 -0.031419 0.2263 0.134787 -0.014046 0.277676 0.148926 -0.042909 0.17121 -82.61985 -80.381065 98.128563 59.728939 -62.510368 -22.935921 29.211449 0.272849 -0.20652 -0.077015 -2.644721 27.211483 17.636625 -26.322725 52.411175 -19.46665 -14.395592 29.410378 -1e-06 -8.774818 -2e-06 15.694792 -18.016209 6.2904 -0.609776 -1.795655 -3.889326 -4.807087 -11.046808 -2.937848 4e-06 -20.976013 0.0 -5.01997 -25.033552 -4.031876 7e-06 1e-06 -1e-06 -10.634529 -5.686969 -3.565585 10.57327 -17.922945 -3.113898 3e-06 -13.821203 2e-06 -0.501777 -31.181494 -4.027011 -10.985131 -59.375252 7.099749 -13.982708 -7.150194 -2.875042 13.772724 -8.401488 -3.21824 0.347731 -34.211536 0.771659 -0.96303 -17.733362 2.621022 0.0 0.0 0.0 -17.346411 -20.095207 -4.201777 21.757551 -1.638375 3.866426 1e-06 -6.338822 2e-06 -1.697587 -22.591736 -6.194005 0.0 -5e-06 -2e-06 33.796364 -70.546913 165.212936 51.131809 -47.102715 -11.848207 37.287258 0.09434 0.144946 -9.153563 -5.504997 23.367685 22.18211 -20.375898 49.933304 -16.701811 -16.743528 28.476528 -3e-06 -12.690598 -4e-06 16.363382 -18.114208 2.764258 -0.10592 -1.513856 -4.275879 -5.03904 -5.612871 -2.953555 5e-06 -11.02052 -2e-06 -6.111295 -15.89533 -3.840472 1e-06 -0.0 -0.0 -10.283369 -5.680288 -4.341836 11.02829 -11.302402 -2.372631 -1.384268 -14.238577 -6.32012 -0.625442 -26.924183 -3.827596 -4.377026 -50.102543 -3.562522 -13.708521 -7.363474 -3.720938 18.141146 -14.052734 -3.242675 5e-06 -18.787266 0.0 -0.429709 -8.456041 2.555503 0.0 0.0 -1e-06 -15.923534 -20.094479 -5.473583 30.419205 -7.190824 1.735927 1e-06 -8.162922 -0.0 -1.861901 -22.861469 -6.167939 -0.0 -3e-06 -2e-06 176.617645 -12.40494 -6.947867 71.544678 -0.587099 0.488711 -101.151901 15.348926 -9.155353 -22.294035 1.901694 1.902859 -1.000001 0.0 0.0 -12.905378 -5.772496 4.601962 75.890396 -0.636506 0.489035 -105.242126 15.059944 -5.700839 -16.581497 0.767495 1.586953 -1.000002 0.0 -0.0 
0.0 0.0 0.0 0.0 -0.0 0.0 0.262022 82.91848 5.42935 91.608093 10.854156 90.278786 1.03253 1.448591 -0.01266 -9.816738 -0.482987 -0.319858 23.76642 2.498846 -1.263483 14.264814 9.938101 1.344119 -2.393873 -0.533662 1.128449 -31.729671 1.268624 -2.20241 8e-06 -0.0 -0.0 -0.058018 -0.035606 0.228466 0.109567 -0.014975 0.280968 0.129511 -0.051711 0.171177 -83.546715 -80.607819 98.98658 59.722076 -61.690773 -22.982832 29.235245 0.202566 -0.23399 -0.052865 -3.424542 27.23604 17.636629 -26.322733 52.411198 -19.466663 -14.395597 29.410395 -0.0 -8.774822 -3e-06 15.715257 -18.103931 6.276543 -0.609777 -1.795653 -3.889328 -4.807089 -11.046813 -2.937849 4e-06 -20.976019 -3e-06 -5.01997 -25.03356 -4.031882 7e-06 -1e-06 -0.0 -10.634535 -5.686973 -3.565587 10.573272 -17.922951 -3.113901 3e-06 -13.821211 -1e-06 -0.501777 -31.181507 -4.027019 -11.11408 -59.337318 7.146823 -13.982716 -7.150201 -2.875042 13.772729 -8.401493 -3.218243 0.347734 -34.211555 0.771652 -0.963029 -17.733372 2.62102 0.0 0.0 0.0 -17.346418 -20.095224 -4.20178 21.757557 -1.638373 3.866432 2e-06 -6.338825 0.0 -1.69759 -22.591753 -6.19401 0.0 -4e-06 -2e-06 32.133823 -70.36805 167.039764 50.45462 -46.384003 -12.346907 36.498413 -0.08195 0.054528 -8.838394 -5.154018 22.74267 22.182112 -20.375883 49.933319 -16.701813 -16.743528 28.476532 -1e-06 -12.690601 1e-06 16.308924 -18.065332 2.78758 -0.10592 -1.513857 -4.275883 -5.039043 -5.612875 -2.953557 2e-06 -11.020526 -2e-06 -6.111297 -15.895339 -3.840475 -0.0 0.0 -2e-06 -10.283373 -5.680291 -4.341841 11.028296 -11.302404 -2.372633 -1.384268 -14.238583 -6.320124 -0.625438 -26.924187 -3.827604 -4.328859 -50.119671 -3.590498 -13.708527 -7.363479 -3.720939 18.141151 -14.052738 -3.242676 7e-06 -18.787271 -6e-06 -0.429712 -8.456042 2.555504 1e-06 -0.0 -1e-06 -15.923539 -20.09449 -5.473581 30.419218 -7.190825 1.735923 3e-06 -8.162927 -3e-06 -1.861903 -22.861469 -6.167946 -2e-06 -2e-06 -0.0 175.563934 -12.668193 -6.660016 73.53492 -0.617525 0.487034 -102.198235 14.826409 -8.960723 -22.190149 1.883569 1.908181 -1.0 0.0 0.0 -13.601363 -5.828215 4.595302 77.554771 -0.651452 0.479343 -106.657394 14.869028 -6.710924 -16.475899 0.760833 1.581044 -1.000003 -0.0 0.0 
0.0 0.0 0.0 0.0 -0.0 0.0 0.351519 81.89238 5.488048 91.667259 10.333242 90.872559 1.251953 1.389496 0.034783 -9.711583 -0.502477 -0.347235 23.905582 2.409649 -1.224634 13.007548 9.848602 1.337021 -2.414259 -0.569021 0.700055 -31.772436 1.199742 -2.630301 6e-06 -0.0 -0.0 -0.062621 -0.038914 0.220506 0.077754 -0.009947 0.272161 0.105043 -0.064868 0.163243 -85.469009 -80.843803 100.692245 59.639465 -60.688999 -22.96076 29.523903 0.113837 -0.274786 -0.033974 -3.867204 27.908314 17.636625 -26.322733 52.411198 -19.46666 -14.395594 29.410389 -0.0 -8.77482 -1e-06 15.740379 -18.162085 6.277125 -0.609777 -1.795653 -3.889329 -4.807088 -11.046812 -2.937849 3e-06 -20.976015 -1e-06 -5.019969 -25.033556 -4.031879 7e-06 2e-06 -1e-06 -10.634533 -5.68697 -3.565589 10.573272 -17.922951 -3.113902 2e-06 -13.821208 0.0 -0.501778 -31.181501 -4.027017 -11.271114 -59.345535 7.226184 -13.982712 -7.150197 -2.875044 13.772727 -8.401489 -3.21824 0.347733 -34.211544 0.771654 -0.963029 -17.733368 2.62102 0.0 1e-06 0.0 -17.346416 -20.095215 -4.201784 21.757555 -1.638374 3.866426 2e-06 -6.338823 1e-06 -1.697588 -22.591743 -6.194006 1e-06 -5e-06 -2e-06 30.317455 -70.348564 168.932617 49.986485 -45.77166 -13.104874 35.880112 -0.188436 -0.012814 -8.613145 -4.670292 22.706139 22.182114 -20.375895 49.933319 -16.701817 -16.74353 28.476532 -3e-06 -12.690601 1e-06 16.248095 -17.978531 2.785181 -0.105918 -1.513856 -4.27588 -5.039041 -5.612872 -2.953556 5e-06 -11.020523 -4e-06 -6.111296 -15.895334 -3.840472 -1e-06 -0.0 -0.0 -10.283369 -5.680286 -4.34184 11.028296 -11.302407 -2.372631 -1.384269 -14.238583 -6.320121 -0.62544 -26.924189 -3.8276 -4.283515 -50.039589 -3.631172 -13.708526 -7.363476 -3.720939 18.141148 -14.05274 -3.242672 6e-06 -18.787271 -2e-06 -0.429712 -8.456043 2.555503 0.0 -0.0 0.0 -15.923534 -20.094484 -5.473586 30.419214 -7.190827 1.735924 2e-06 -8.162929 -2e-06 -1.861901 -22.861479 -6.167943 -2e-06 -3e-06 -1e-06 173.998215 -12.935805 -6.126 75.89312 -0.62129 0.452914 -103.417313 14.126808 -8.895192 -22.070871 1.876845 1.904433 -0.999999 0.0 0.0 -14.812148 -5.778825 4.662312 79.761894 -0.669702 0.460503 -107.859573 14.361291 -7.504003 -16.313429 0.74674 1.573026 -1.000002 -0.0 -0.0 
